<svg width="21" height="20" viewBox="0 0 21 20" fill="none" xmlns="http://www.w3.org/2000/svg">
<path d="M10.9042 4.32418V4.71684L11.2856 4.80993C12.5795 5.12566 13.3029 5.98882 13.5156 6.99945H12.6793C12.5931 6.57535 12.4087 6.18015 12.0746 5.86823C11.62 5.44385 10.969 5.2493 10.1541 5.2493C9.38207 5.2493 8.70866 5.42198 8.21311 5.77061C7.70334 6.12924 7.40388 6.66251 7.40388 7.2911C7.40388 7.5558 7.45547 7.81749 7.58481 8.06645C7.71336 8.31389 7.90492 8.52222 8.14714 8.70145C8.61677 9.04895 9.32058 9.31792 10.2783 9.56684C11.2153 9.81037 12.112 10.1162 12.7712 10.6126C13.4022 11.0878 13.8211 11.7398 13.8211 12.7499C13.8211 13.4632 13.5574 13.9934 13.1322 14.3875C12.6949 14.7928 12.0621 15.0747 11.311 15.2173L10.9042 15.2944V15.7085V17.0003H9.40396V15.6918V15.2873L9.00838 15.2028C7.71788 14.9273 6.6973 14.2018 6.41153 12.9999H7.25382C7.37047 13.4284 7.60291 13.8253 7.99128 14.1348C8.50436 14.5436 9.22744 14.75 10.1541 14.75C11.1537 14.75 11.8525 14.5008 12.3056 14.0903C12.7607 13.678 12.9043 13.1603 12.9043 12.7582C12.9043 12.263 12.7632 11.7427 12.2779 11.2865C11.8203 10.8563 11.0959 10.5216 10.0208 10.2636C8.88434 9.99064 7.98927 9.63278 7.38566 9.15063C6.8057 8.68737 6.48705 8.10582 6.48705 7.30777C6.48705 6.0337 7.50983 5.11258 9.00976 4.78786L9.40396 4.70251V4.29918V2.99902H10.9042V4.32418Z" fill="#434343" stroke="#434343"/>
</svg>
