<svg width="21" height="20" viewBox="0 0 21 20" fill="none" xmlns="http://www.w3.org/2000/svg">
<path d="M10.3691 4.60567L9.94352 3.90883L9.51631 4.60469L7.8995 7.23825L7.43194 7.99985H8.32561H11.5509H12.4421L11.9776 7.23923L10.3691 4.60567ZM4.10858 12.417H3.60858V12.917V16.2506V16.7506H4.10858H7.4422H7.9422V16.2506V12.917V12.417H7.4422H4.10858ZM6.25022 8.66666L9.94241 2.62488L13.6346 8.66666H6.25022ZM11.2758 14.5838C11.2758 12.7848 12.7271 11.3335 14.5261 11.3335C16.3252 11.3335 17.7765 12.7848 17.7765 14.5838C17.7765 16.3828 16.3252 17.8341 14.5261 17.8341C12.7271 17.8341 11.2758 16.3828 11.2758 14.5838ZM11.9426 14.5838C11.9426 16.01 13.0999 17.1673 14.5261 17.1673C15.9524 17.1673 17.1097 16.01 17.1097 14.5838C17.1097 13.1575 15.9524 12.0003 14.5261 12.0003C13.0999 12.0003 11.9426 13.1575 11.9426 14.5838ZM8.60901 11.7502V17.4174H2.94177V11.7502H8.60901Z" fill="#434343" stroke="#434343"/>
</svg>
