<svg width="21" height="20" viewBox="0 0 21 20" fill="none" xmlns="http://www.w3.org/2000/svg">
<path d="M11.2727 1.68652V4.21174C14.0979 4.62011 16.2731 7.03698 16.2731 9.9789C16.2731 10.729 16.1231 11.4374 15.8731 12.0957L18.0399 13.3709C18.5066 12.3374 18.7733 11.1873 18.7733 9.9789C18.7733 5.66186 15.4814 2.10323 11.2727 1.68652ZM10.4393 15.8127C7.214 15.8127 4.60544 13.2042 4.60544 9.9789C4.60544 7.03698 6.78062 4.62011 9.60587 4.21174V1.68652C5.38884 2.10323 2.10522 5.65353 2.10522 9.9789C2.10522 14.5793 5.83054 18.3129 10.4309 18.3129C13.1895 18.3129 15.6314 16.9712 17.1482 14.9043L14.9813 13.6292C13.9146 14.9627 12.2811 15.8127 10.4393 15.8127Z" fill="#434343"/>
</svg>
