<svg width="128" height="129" viewBox="0 0 128 129" fill="none" xmlns="http://www.w3.org/2000/svg">
<path d="M75.565 73.7268L83.0316 60.8201C83.5116 60.0201 83.2983 59.0068 82.605 58.4201L74.7116 52.2334C74.8716 51.0601 74.9783 49.8334 74.9783 48.6068C74.9783 47.3801 74.8716 46.1534 74.7116 44.9268L82.605 38.7401C83.2983 38.1534 83.5116 37.1401 83.0316 36.3401L75.565 23.4334C75.085 22.6334 74.125 22.3134 73.2716 22.6334L63.9916 26.3668C62.0716 24.8734 59.9916 23.6468 57.6983 22.6868L56.3116 12.8201C56.1516 11.9668 55.3516 11.2734 54.445 11.2734H39.5116C38.605 11.2734 37.805 11.9668 37.645 12.8734L36.2583 22.7401C34.0183 23.7001 31.885 24.9268 29.965 26.4201L20.685 22.6868C19.8316 22.3668 18.8716 22.6868 18.3916 23.4868L10.925 36.3934C10.445 37.1934 10.6583 38.2068 11.3516 38.7934L19.245 44.9801C19.085 46.1534 18.9783 47.3801 18.9783 48.6068C18.9783 49.8334 19.085 51.0601 19.245 52.2868L11.3516 58.4734C10.6583 59.0601 10.445 60.0734 10.925 60.8734L18.3916 73.7801C18.8716 74.5801 19.8316 74.9001 20.685 74.5801L29.965 70.8468C31.885 72.3401 33.965 73.5668 36.2583 74.5268L37.645 84.3934C37.805 85.2468 38.605 85.9401 39.5116 85.9401H54.445C55.3516 85.9401 56.1516 85.2468 56.3116 84.3401L57.6983 74.4734C59.9383 73.5134 62.0716 72.2868 63.9916 70.7934L73.2716 74.5268C74.125 74.8468 75.085 74.5268 75.565 73.7268ZM46.9783 59.2734C41.1116 59.2734 36.3116 54.4734 36.3116 48.6068C36.3116 42.7401 41.1116 37.9401 46.9783 37.9401C52.845 37.9401 57.645 42.7401 57.645 48.6068C57.645 54.4734 52.845 59.2734 46.9783 59.2734Z" fill="#BFBFBF"/>
<path d="M116.898 100.18L111.778 96.2334C111.885 95.4868 111.992 94.6868 111.992 93.8868C111.992 93.0868 111.938 92.2868 111.778 91.5401L116.845 87.5934C117.272 87.2201 117.432 86.5801 117.112 86.0468L112.312 77.7801C112.045 77.2468 111.405 77.0868 110.818 77.2468L104.898 79.6468C103.672 78.6868 102.338 77.8868 100.845 77.3001L99.9383 71.0068C99.885 70.3668 99.3516 69.9401 98.8183 69.9401H89.2716C88.685 69.9401 88.1516 70.3668 88.0983 70.9534L87.1916 77.2468C85.7516 77.8868 84.365 78.6334 83.1383 79.5934L77.2183 77.1934C76.685 76.9801 76.045 77.1934 75.725 77.7268L70.925 85.9934C70.6583 86.5268 70.7116 87.1668 71.1916 87.5401L76.2583 91.4868C76.1516 92.2334 76.0983 93.0334 76.0983 93.8334C76.0983 94.6334 76.1516 95.4334 76.2583 96.1801L71.1916 100.127C70.765 100.5 70.605 101.14 70.925 101.673L75.725 109.94C75.9916 110.473 76.6316 110.633 77.2183 110.473L83.1383 108.073C84.365 109.033 85.6983 109.833 87.1916 110.42L88.0983 116.713C88.205 117.3 88.685 117.727 89.2716 117.727H98.8183C99.405 117.727 99.9383 117.3 99.9916 116.713L100.898 110.42C102.338 109.78 103.725 109.033 104.898 108.073L110.872 110.473C111.405 110.687 112.045 110.473 112.365 109.94L117.165 101.673C117.485 101.193 117.325 100.553 116.898 100.18ZM94.0183 101.033C90.0716 101.033 86.8183 97.8334 86.8183 93.8334C86.8183 89.8334 90.0183 86.6334 94.0183 86.6334C98.0183 86.6334 101.218 89.8334 101.218 93.8334C101.218 97.8334 97.965 101.033 94.0183 101.033Z" fill="#BFBFBF"/>
</svg>
