<svg width="128" height="129" viewBox="0 0 128 129" fill="none" xmlns="http://www.w3.org/2000/svg">
<g clip-path="url(#clip0_3189_32968)">
<rect width="128" height="128" transform="translate(0 0.5)" fill="white" fill-opacity="0.01"/>
<path d="M101.333 21.8332H96V11.1665H85.3333V21.8332H42.6667V11.1665H32V21.8332H26.6667C20.8 21.8332 16 26.6332 16 32.4998V107.167C16 113.033 20.8 117.833 26.6667 117.833H101.333C107.2 117.833 112 113.033 112 107.167V32.4998C112 26.6332 107.2 21.8332 101.333 21.8332ZM101.333 107.167H26.6667V53.8332H101.333V107.167ZM26.6667 43.1665V32.4998H101.333V43.1665H26.6667ZM37.3333 64.4998H90.6667V75.1665H37.3333V64.4998ZM37.3333 85.8332H74.6667V96.4998H37.3333V85.8332Z" fill="#BFBFBF"/>
</g>
<defs>
<clipPath id="clip0_3189_32968">
<rect width="128" height="128" fill="white" transform="translate(0 0.5)"/>
</clipPath>
</defs>
</svg>
