<svg width="21" height="20" viewBox="0 0 21 20" fill="none" xmlns="http://www.w3.org/2000/svg">
<path d="M13.5762 8.02489C13.4262 5.69969 12.4845 3.43283 10.7177 1.66602C8.93418 3.4495 7.95077 5.71636 7.75908 8.02489C8.82584 8.59161 9.80926 9.325 10.6677 10.2167C11.5261 9.33334 12.5095 8.59994 13.5762 8.02489ZM10.7093 4.32458C11.2344 5.18298 11.6011 6.1414 11.7928 7.14148C11.4011 7.39151 11.0344 7.66653 10.676 7.95822C10.326 7.67486 9.95094 7.39984 9.56757 7.14982C9.77592 6.14973 10.1593 5.19132 10.7093 4.32458ZM10.6677 12.8753C9.98427 11.8336 9.11753 10.9251 8.11745 10.2084C8.0091 10.1334 7.89243 10.0751 7.78408 9.99173C7.89243 10.0667 8.0091 10.1334 8.10911 10.2001C6.48397 9.02498 4.49214 8.33325 2.33362 8.33325C2.33362 12.767 5.13386 16.5173 9.02586 17.9091C9.5509 18.1008 10.1009 18.2424 10.6677 18.3341C11.2344 18.2341 11.7761 18.0924 12.3095 17.9091C16.2015 16.5173 19.0017 12.767 19.0017 8.33325C15.5181 8.33325 12.4595 10.1417 10.6677 12.8753ZM11.7678 16.3339C11.4011 16.4589 11.0344 16.559 10.6593 16.6423C10.2926 16.5673 9.93427 16.4673 9.59257 16.3423C6.85067 15.3589 4.84217 13.017 4.21711 10.2167C5.13386 10.4334 6.00893 10.8085 6.81734 11.3252L6.80067 11.3335C6.90901 11.4085 7.01735 11.4835 7.12569 11.5419L7.18403 11.5752C8.0091 12.1752 8.7175 12.917 9.27588 13.7837L10.6677 15.9172L12.0595 13.7921C12.6345 12.917 13.3512 12.1669 14.168 11.5752L14.2263 11.5335C14.3013 11.4919 14.3763 11.4419 14.4513 11.3918L14.443 11.3752C15.2597 10.8335 16.1681 10.4334 17.1182 10.2084C16.4932 13.017 14.493 15.3589 11.7678 16.3339ZM8.15912 10.2334C8.14245 10.2251 8.12578 10.2084 8.11745 10.2001C8.11745 10.2001 8.12578 10.2001 8.12578 10.2084C8.13411 10.2167 8.14245 10.2251 8.15912 10.2334Z" fill="#434343"/>
</svg>
