<svg width="20" height="20" viewBox="0 0 20 20" fill="none" xmlns="http://www.w3.org/2000/svg">
<path fill-rule="evenodd" clip-rule="evenodd" d="M4.55612 3.66056C4.79998 3.90491 4.79959 4.30067 4.55524 4.54452C3.15628 5.9407 2.29185 7.86935 2.29185 10.001C2.29185 12.1577 3.17662 14.1066 4.60458 15.5064C4.85109 15.7481 4.85502 16.1438 4.61336 16.3903C4.37171 16.6369 3.97597 16.6408 3.72945 16.3991C2.07154 14.7739 1.04175 12.5072 1.04175 10.001C1.04175 7.52402 2.04784 5.28077 3.67216 3.65969C3.9165 3.41583 4.31227 3.41622 4.55612 3.66056ZM15.515 3.72089C15.7615 3.47923 16.1572 3.48316 16.3989 3.72967C17.9824 5.34503 18.9599 7.55953 18.9599 10.001C18.9599 12.4717 17.9591 14.7097 16.3422 16.3298C16.0984 16.5741 15.7026 16.5745 15.4583 16.3307C15.214 16.0868 15.2135 15.691 15.4574 15.4467C16.8499 14.0514 17.7098 12.1272 17.7098 10.001C17.7098 7.89981 16.8699 5.99595 15.5062 4.60481C15.2645 4.3583 15.2685 3.96255 15.515 3.72089ZM6.92494 6.24036C7.16082 6.49242 7.1477 6.88796 6.89565 7.12384C6.10482 7.8639 5.62547 8.87611 5.62547 9.98621C5.62547 11.1092 6.11609 12.1323 6.92355 12.8745C7.1777 13.1081 7.19434 13.5035 6.96072 13.7577C6.72711 14.0118 6.33169 14.0285 6.07755 13.7949C5.03348 12.8351 4.37537 11.4865 4.37537 9.98621C4.37537 8.50342 5.01832 7.16854 6.04148 6.21107C6.29353 5.97519 6.68907 5.98831 6.92494 6.24036ZM13.1202 6.27205C13.3588 6.02259 13.7544 6.0138 14.0039 6.25241C15.0017 7.20676 15.6263 8.52475 15.6263 9.98621C15.6263 11.4652 14.9867 12.797 13.9682 13.7539C13.7167 13.9903 13.321 13.978 13.0847 13.7264C12.8483 13.4748 12.8607 13.0792 13.1122 12.8429C13.8993 12.1033 14.3762 11.0935 14.3762 9.98621C14.3762 8.89195 13.9104 7.89291 13.1398 7.15579C12.8903 6.91718 12.8816 6.52151 13.1202 6.27205Z" fill="#434343"/>
<path d="M11.3812 8.71018C12.1278 9.25831 12.5011 9.53234 12.5011 10.001C12.5011 10.4698 12.1278 10.7438 11.3812 11.2919C11.1752 11.4432 10.9708 11.5857 10.7829 11.7044C10.6182 11.8085 10.4316 11.9162 10.2383 12.022C9.49355 12.4296 9.12111 12.6334 8.78716 12.4078C8.45313 12.1821 8.4228 11.7097 8.36212 10.7649C8.34496 10.4978 8.33404 10.2358 8.33404 10.001C8.33404 9.76627 8.34496 9.50434 8.36212 9.23715C8.4228 8.29237 8.45313 7.81999 8.78716 7.59434C9.12111 7.36869 9.49355 7.5725 10.2383 7.98011C10.4316 8.08586 10.6182 8.19358 10.7829 8.29772C10.9708 8.41641 11.1752 8.55892 11.3812 8.71018Z" fill="#434343"/>
</svg>
