<svg width="21" height="20" viewBox="0 0 21 20" fill="none" xmlns="http://www.w3.org/2000/svg">
<path d="M4.89797 13.9309L5.36264 13.4596L6.19001 14.287L9.25694 17.3539L9.27051 17.3675L9.28509 17.38C9.40026 17.4787 9.57811 17.5837 9.81051 17.5837H15.061H15.4832L15.5539 17.1674L16.2206 13.2421L16.2206 13.2421L16.2212 13.2387C16.3152 12.6611 16.0189 12.0908 15.4929 11.8278L12.6093 10.386L12.5038 10.3332H12.3857H11.4189V5.83275C11.4189 5.32325 11.0117 4.91605 10.5022 4.91605C9.99274 4.91605 9.58553 5.32325 9.58553 5.83275V14.0596L6.64604 13.4441L5.595 13.224L5.71368 13.1036C5.71406 13.1032 5.71444 13.1028 5.71482 13.1024C5.93961 12.8782 6.22948 12.7583 6.53523 12.7583C6.55309 12.7583 6.5649 12.7576 6.57672 12.7574C6.6511 12.756 6.72585 12.7741 8.31411 13.1139L8.91872 13.2433V12.625V9.9081V9.60216L8.64632 9.4629C7.32283 8.78629 6.41851 7.41214 6.41851 5.83275C6.41851 3.58368 8.25316 1.74902 10.5022 1.74902C12.7513 1.74902 14.586 3.58368 14.586 5.83275C14.586 7.13811 13.9713 8.29491 13.0128 9.03789L12.3847 9.52483L13.0955 9.88027L15.7943 11.2296C15.7945 11.2297 15.7947 11.2299 15.7949 11.23C16.5924 11.6324 17.0228 12.4853 16.8765 13.35L16.2098 17.275L16.2094 17.2774C16.1161 17.8432 15.634 18.2505 15.061 18.2505H9.81051C9.42643 18.2505 9.0559 18.095 8.79298 17.826L8.79301 17.826L8.78894 17.8219L4.89797 13.9309ZM12.0857 7.86626V9.08715L12.9421 8.21697C13.5471 7.60222 13.9191 6.76098 13.9191 5.83275C13.9191 3.94814 12.3868 2.41583 10.5022 2.41583C8.61762 2.41583 7.08532 3.94814 7.08532 5.83275C7.08532 6.76098 7.45736 7.60222 8.06235 8.21697L8.91872 9.08715V7.86626V5.83275C8.91872 4.95879 9.62828 4.24924 10.5022 4.24924C11.3762 4.24924 12.0857 4.95879 12.0857 5.83275V7.86626Z" fill="#434343" stroke="#434343"/>
</svg>
